<svg xmlns="http://www.w3.org/2000/svg" viewBox="0 0 128 128" role="img" aria-labelledby="title desc">
  <title>ClovEnt</title>
  <desc>Logotipo de ClovEnt inspirado en un trebol de cuatro hojas.</desc>
  <defs>
    <linearGradient id="bg" x1="18" y1="14" x2="112" y2="114" gradientUnits="userSpaceOnUse">
      <stop offset="0" stop-color="#14b8a6"/>
      <stop offset="0.56" stop-color="#10b981"/>
      <stop offset="1" stop-color="#059669"/>
    </linearGradient>
    <filter id="shadow" x="-20%" y="-20%" width="140%" height="140%">
      <feDropShadow dx="0" dy="8" stdDeviation="8" flood-color="#0f766e" flood-opacity="0.22"/>
    </filter>
  </defs>

  <rect x="8" y="8" width="112" height="112" rx="32" fill="url(#bg)" filter="url(#shadow)"/>

  <g fill="#ffffff">
    <path d="M45 31c-8.9 0-16 7.1-16 16 0 10.7 9.4 18.4 19.5 18.4H56V42.7C56 36.2 50.7 31 45 31Z"/>
    <path d="M83 31c-5.7 0-11 5.2-11 11.7v22.7h7.5C89.6 65.4 99 57.7 99 47c0-8.9-7.1-16-16-16Z"/>
    <path d="M48.5 72.6C38.4 72.6 29 80.3 29 91c0 8.9 7.1 16 16 16 5.7 0 11-5.2 11-11.7V72.6h-7.5Z"/>
    <path d="M72 72.6v22.7c0 6.5 5.3 11.7 11 11.7 8.9 0 16-7.1 16-16 0-10.7-9.4-18.4-19.5-18.4H72Z"/>
    <path d="M61.7 74.7c1.7-2.1 3.9-5.6 3.9-10.3 0-6.3-2.6-10-4.7-12.5l-.9-1 .9-1c2.1-2.6 4.7-6.2 4.7-12.6 0-.4 0-.8-.1-1.2h-3.1c-3.2 0-5.8 2.7-5.8 6.1v32.4h1.8c1.4 0 2.6-.7 3.3-1.9Z"/>
  </g>

  <circle cx="64" cy="64" r="6.2" fill="#ecfdf5"/>
</svg>
